<mxfile host="app.diagrams.net" modified="2024-05-03T17:18:18.781Z" agent="Mozilla/5.0 (Windows NT 10.0; Win64; x64) AppleWebKit/537.36 (KHTML, like Gecko) Chrome/124.0.0.0 Safari/537.36 Edg/124.0.0.0" etag="BUWdg2yw72SvEzn-4GH_" version="24.3.1" type="google">
  <diagram name="PÃ¡gina-1" id="I7n_3SatvaSFWncGXIBi">
    <mxGraphModel grid="1" page="1" gridSize="10" guides="1" tooltips="1" connect="1" arrows="1" fold="1" pageScale="1" pageWidth="827" pageHeight="1169" math="0" shadow="0">
      <root>
        <mxCell id="0" />
        <mxCell id="1" parent="0" />
        <mxCell id="p2xkcqfiAdA8EHj6Poy_-3" value="" style="edgeStyle=orthogonalEdgeStyle;rounded=0;orthogonalLoop=1;jettySize=auto;html=1;" edge="1" parent="1" source="p2xkcqfiAdA8EHj6Poy_-1" target="p2xkcqfiAdA8EHj6Poy_-2">
          <mxGeometry relative="1" as="geometry" />
        </mxCell>
        <mxCell id="p2xkcqfiAdA8EHj6Poy_-1" value="INICIO" style="ellipse;whiteSpace=wrap;html=1;" vertex="1" parent="1">
          <mxGeometry x="360" y="40" width="80" height="80" as="geometry" />
        </mxCell>
        <mxCell id="p2xkcqfiAdA8EHj6Poy_-5" value="" style="edgeStyle=orthogonalEdgeStyle;rounded=0;orthogonalLoop=1;jettySize=auto;html=1;" edge="1" parent="1" source="p2xkcqfiAdA8EHj6Poy_-2" target="p2xkcqfiAdA8EHj6Poy_-4">
          <mxGeometry relative="1" as="geometry" />
        </mxCell>
        <mxCell id="p2xkcqfiAdA8EHj6Poy_-2" value="UI = 1&lt;div&gt;U = UI&lt;/div&gt;&lt;div&gt;VI&amp;nbsp;&lt;/div&gt;&lt;div&gt;result&lt;/div&gt;&lt;div&gt;i = 1&lt;/div&gt;" style="whiteSpace=wrap;html=1;" vertex="1" parent="1">
          <mxGeometry x="340" y="150" width="120" height="80" as="geometry" />
        </mxCell>
        <mxCell id="p2xkcqfiAdA8EHj6Poy_-8" value="" style="edgeStyle=orthogonalEdgeStyle;rounded=0;orthogonalLoop=1;jettySize=auto;html=1;" edge="1" parent="1" source="p2xkcqfiAdA8EHj6Poy_-4" target="p2xkcqfiAdA8EHj6Poy_-7">
          <mxGeometry relative="1" as="geometry" />
        </mxCell>
        <mxCell id="p2xkcqfiAdA8EHj6Poy_-11" value="" style="edgeStyle=orthogonalEdgeStyle;rounded=0;orthogonalLoop=1;jettySize=auto;html=1;" edge="1" parent="1" source="p2xkcqfiAdA8EHj6Poy_-4" target="p2xkcqfiAdA8EHj6Poy_-10">
          <mxGeometry relative="1" as="geometry" />
        </mxCell>
        <mxCell id="p2xkcqfiAdA8EHj6Poy_-4" value="10 &amp;gt;= i" style="rhombus;whiteSpace=wrap;html=1;" vertex="1" parent="1">
          <mxGeometry x="360" y="270" width="80" height="80" as="geometry" />
        </mxCell>
        <mxCell id="p2xkcqfiAdA8EHj6Poy_-6" value="NO" style="text;html=1;align=center;verticalAlign=middle;resizable=0;points=[];autosize=1;strokeColor=none;fillColor=none;" vertex="1" parent="1">
          <mxGeometry x="430" y="268" width="40" height="30" as="geometry" />
        </mxCell>
        <mxCell id="p2xkcqfiAdA8EHj6Poy_-7" value="FIN" style="ellipse;whiteSpace=wrap;html=1;" vertex="1" parent="1">
          <mxGeometry x="480" y="270" width="80" height="80" as="geometry" />
        </mxCell>
        <mxCell id="p2xkcqfiAdA8EHj6Poy_-9" value="SI" style="text;html=1;align=center;verticalAlign=middle;resizable=0;points=[];autosize=1;strokeColor=none;fillColor=none;" vertex="1" parent="1">
          <mxGeometry x="414" y="348" width="30" height="30" as="geometry" />
        </mxCell>
        <mxCell id="p2xkcqfiAdA8EHj6Poy_-15" value="" style="edgeStyle=orthogonalEdgeStyle;rounded=0;orthogonalLoop=1;jettySize=auto;html=1;" edge="1" parent="1" source="p2xkcqfiAdA8EHj6Poy_-10" target="p2xkcqfiAdA8EHj6Poy_-14">
          <mxGeometry relative="1" as="geometry" />
        </mxCell>
        <mxCell id="p2xkcqfiAdA8EHj6Poy_-10" value="VI = U&lt;div&gt;result = UI / (i + 1)&lt;/div&gt;" style="whiteSpace=wrap;html=1;" vertex="1" parent="1">
          <mxGeometry x="340" y="390" width="120" height="60" as="geometry" />
        </mxCell>
        <mxCell id="p2xkcqfiAdA8EHj6Poy_-16" style="edgeStyle=orthogonalEdgeStyle;rounded=0;orthogonalLoop=1;jettySize=auto;html=1;entryX=0;entryY=0.5;entryDx=0;entryDy=0;" edge="1" parent="1" source="p2xkcqfiAdA8EHj6Poy_-14" target="p2xkcqfiAdA8EHj6Poy_-4">
          <mxGeometry relative="1" as="geometry">
            <Array as="points">
              <mxPoint x="273" y="515" />
              <mxPoint x="273" y="310" />
            </Array>
          </mxGeometry>
        </mxCell>
        <mxCell id="p2xkcqfiAdA8EHj6Poy_-14" value="OUTPUT&lt;div&gt;&quot;U&quot;, i , &quot; = &quot;, UI, &quot; &quot;, &quot;V&quot;, i, &quot; = &quot;, VI&lt;/div&gt;" style="shape=parallelogram;perimeter=parallelogramPerimeter;whiteSpace=wrap;html=1;fixedSize=1;" vertex="1" parent="1">
          <mxGeometry x="292.5" y="490" width="215" height="50" as="geometry" />
        </mxCell>
        <mxCell id="p2xkcqfiAdA8EHj6Poy_-17" value="++i" style="whiteSpace=wrap;html=1;" vertex="1" parent="1">
          <mxGeometry x="240" y="400" width="70" height="40" as="geometry" />
        </mxCell>
      </root>
    </mxGraphModel>
  </diagram>
</mxfile>
